# xmcd
#
# Track frame offsets:
# 150
# 10047
# 19122
# 38085
# 51807
# 69445
# 79610
# 93017
# 105742
# 120182
# 136640
# 148567
# 163690
# 192197
# 207117
# 226107
# 239825
# 251670
# 265255
# 282205
#
# Disc length: 3977 seconds
#
#
# Revision: 3
# Processed by: cddbd v1.5PL3 Copyright (c) Steve Scherf et al.
# Submitted via: FreeRIP 2.60 
#
DISCID=fe0f8714
DTITLE=Ray Charles - Ray Charles - His Greatest Hits Vol. 2
DYEAR=1987
DGENRE=Blues
TTITLE0=Busted
TTITLE1=Hit The Road, Jack
TTITLE2=I Can't Stop Loving You
TTITLE3=You Are My Sunshine
TTITLE4=Ruby
TTITLE5=Sticks And Stones
TTITLE6=Take These Chains From My Heart
TTITLE7=Them That Got
TTITLE8=No One
TTITLE9=Without Love (There Is Nothing)
TTITLE10=Don't Set Me Free
TTITLE11=I'm A Fool To Care
TTITLE12=Makin' Whoopee, Parts 1 and 2
TTITLE13=Hardhearted Hannah
TTITLE14=Baby It's Cold Outside
TTITLE15=At The Club
TTITLE16=In the Heat Of The Night
TTITLE17=Eleanor Rigby
TTITLE18=Look What They Done To My Song, Ma
TTITLE19=America The Beautiful
EXTD=(c) 1987 Dunhill Compact Classics, Inc.\nDZS-037
EXTT0=
EXTT1=
EXTT2=
EXTT3=
EXTT4=
EXTT5=
EXTT6=
EXTT7=
EXTT8=
EXTT9=
EXTT10=
EXTT11=
EXTT12=
EXTT13=
EXTT14=
EXTT15=
EXTT16=
EXTT17=
EXTT18=
EXTT19=
PLAYORDER=
